<svg width="39" height="10" viewBox="0 0 39 10" fill="none" xmlns="http://www.w3.org/2000/svg">
    <path
        d="M5.53 0.949999C5.53 0.903333 5.586 0.861333 5.698 0.823999C5.81 0.777333 5.91733 0.753999 6.02 0.753999C6.09467 0.753999 6.15067 0.772666 6.188 0.809999C6.22533 0.838 6.22533 0.884666 6.188 0.949999C6.11333 1.09933 5.94533 1.41667 5.684 1.902C5.292 2.63 4.97933 3.26467 4.746 3.806C4.51267 4.34733 4.312 5.00533 4.144 5.78C3.976 6.55467 3.892 7.44133 3.892 8.44L3.906 9.238C3.906 9.33133 3.864 9.40133 3.78 9.448C3.70533 9.49467 3.60733 9.518 3.486 9.518C3.39267 9.518 3.332 9.504 3.304 9.476C3.28533 9.448 3.276 9.406 3.276 9.35C3.276 9.294 3.276 9.252 3.276 9.224C3.248 8.86 3.234 8.51467 3.234 8.188C3.234 7.45067 3.29933 6.746 3.43 6.074C2.87 5.38333 2.41267 4.79533 2.058 4.31C1.71267 3.81533 1.386 3.26933 1.078 2.672C0.77 2.07467 0.480667 1.384 0.21 0.6C0.228667 0.609333 0.322 0.604666 0.49 0.586C0.658 0.567333 0.751333 0.557999 0.77 0.557999L1.218 1.412C1.75 2.42 2.17467 3.19 2.492 3.722C2.80933 4.24467 3.18267 4.75333 3.612 5.248C3.808 4.50133 4.046 3.82933 4.326 3.232C4.61533 2.62533 4.956 1.972 5.348 1.272L5.53 0.949999ZM9.45995 9.014C8.90929 9.014 8.40995 8.89267 7.96195 8.65C7.52329 8.398 7.17795 8.05267 6.92595 7.614C6.68329 7.166 6.56195 6.65733 6.56195 6.088C6.56195 5.15467 6.90262 4.45933 7.58395 4.002C8.27462 3.54467 9.11929 3.316 10.118 3.316C10.5753 3.316 11 3.428 11.392 3.652C11.7933 3.876 12.1153 4.198 12.358 4.618C12.6006 5.038 12.722 5.52333 12.722 6.074C12.722 6.67133 12.568 7.194 12.26 7.642C11.952 8.08067 11.546 8.42133 11.042 8.664C10.5473 8.89733 10.02 9.014 9.45995 9.014ZM9.30595 8.216C10.174 8.216 10.832 8.02 11.28 7.628C11.728 7.236 11.952 6.662 11.952 5.906C11.952 5.39267 11.7746 4.94933 11.42 4.576C11.0746 4.20267 10.5893 4.016 9.96395 4.016C9.54395 4.016 9.11929 4.09533 8.68995 4.254C8.26062 4.41267 7.90595 4.65067 7.62595 4.968C7.34595 5.28533 7.20595 5.668 7.20595 6.116C7.20595 6.48933 7.29929 6.83933 7.48595 7.166C7.67262 7.48333 7.92462 7.74 8.24195 7.936C8.56862 8.12267 8.92329 8.216 9.30595 8.216ZM20.2754 8.93C20.1074 8.93 19.9721 8.86 19.8694 8.72C19.7761 8.57067 19.6921 8.34667 19.6174 8.048C19.5427 7.74 19.4261 7.208 19.2674 6.452C19.1087 7.07733 18.8101 7.57667 18.3714 7.95C17.9327 8.314 17.3961 8.496 16.7614 8.496C16.1827 8.496 15.6927 8.29533 15.2914 7.894C14.8994 7.48333 14.6054 6.94667 14.4094 6.284C14.2134 5.612 14.1154 4.88867 14.1154 4.114C14.1154 3.75933 14.1481 3.456 14.2134 3.204C14.2881 2.94267 14.3767 2.74667 14.4794 2.616C14.5914 2.48533 14.6987 2.42467 14.8014 2.434C14.9134 2.434 14.9694 2.50867 14.9694 2.658C14.9694 2.77933 14.9367 2.97067 14.8714 3.232C14.8061 3.52133 14.7734 3.85267 14.7734 4.226C14.7734 4.786 14.8527 5.332 15.0114 5.864C15.1794 6.396 15.4221 6.83467 15.7394 7.18C16.0661 7.516 16.4487 7.684 16.8874 7.684C17.2514 7.684 17.5827 7.57667 17.8814 7.362C18.1801 7.14733 18.4134 6.87667 18.5814 6.55C18.7587 6.22333 18.8474 5.90133 18.8474 5.584V3.358C18.9501 3.162 19.0901 3.064 19.2674 3.064C19.4261 3.064 19.5334 3.19933 19.5894 3.47C19.6454 3.74067 19.6734 4.12333 19.6734 4.618C19.6734 5.038 19.6687 5.36 19.6594 5.584C19.7154 5.892 19.7994 6.20467 19.9114 6.522C20.0327 6.83933 20.1821 7.19867 20.3594 7.6C20.5741 8.09467 20.6814 8.398 20.6814 8.51C20.6814 8.79 20.5461 8.93 20.2754 8.93ZM24.1021 8.16C24.1021 8.048 24.1114 7.964 24.1301 7.908C24.1581 7.84267 24.2188 7.81 24.3121 7.81C24.3961 7.81 24.4894 7.82867 24.5921 7.866C24.7041 7.90333 24.8114 7.94533 24.9141 7.992C25.1754 8.104 25.4088 8.188 25.6141 8.244C25.8288 8.3 26.0948 8.328 26.4121 8.328C27.5694 8.328 28.4374 8.05267 29.0161 7.502C29.6041 6.95133 29.8981 6.23267 29.8981 5.346C29.8981 4.55267 29.6741 3.85733 29.2261 3.26C28.7781 2.65333 28.2088 2.17733 27.5181 1.832C26.8368 1.48667 26.1414 1.28133 25.4321 1.216L26.2301 7.138C26.2301 7.29667 26.2068 7.42733 26.1601 7.53C26.1228 7.63267 26.0294 7.684 25.8801 7.684C25.8428 7.70267 25.7728 7.45067 25.6701 6.928C25.5674 6.40533 25.4274 5.63533 25.2501 4.618C25.0448 3.43267 24.8861 2.55533 24.7741 1.986C24.6621 1.40733 24.5734 1.076 24.5081 0.992C23.7334 0.992 23.0988 1.034 22.6041 1.118C22.1094 1.19267 21.7314 1.28133 21.4701 1.384C21.2088 1.48667 21.1014 1.538 21.1481 1.538C21.1014 1.51933 21.0688 1.49133 21.0501 1.454C21.0314 1.40733 21.0174 1.342 21.0081 1.258C20.9894 1.174 20.9754 1.11333 20.9661 1.076C20.9661 0.851999 21.1668 0.674666 21.5681 0.544C21.9694 0.413333 22.3894 0.324666 22.8281 0.278C23.2761 0.231333 23.5748 0.208 23.7241 0.208C24.7228 0.208 25.7634 0.413333 26.8461 0.823999C27.9288 1.22533 28.8388 1.818 29.5761 2.602C30.3134 3.386 30.6821 4.31467 30.6821 5.388C30.6821 6.19067 30.4814 6.87667 30.0801 7.446C29.6788 8.006 29.1514 8.43067 28.4981 8.72C27.8541 9.00933 27.1634 9.154 26.4261 9.154C25.8288 9.154 25.2921 9.06067 24.8161 8.874C24.3401 8.68733 24.1021 8.44933 24.1021 8.16ZM34.9853 9.014C34.4347 9.014 33.9353 8.89267 33.4873 8.65C33.0487 8.398 32.7033 8.05267 32.4513 7.614C32.2087 7.166 32.0873 6.65733 32.0873 6.088C32.0873 5.15467 32.428 4.45933 33.1093 4.002C33.8 3.54467 34.6447 3.316 35.6433 3.316C36.1007 3.316 36.5253 3.428 36.9173 3.652C37.3187 3.876 37.6407 4.198 37.8833 4.618C38.126 5.038 38.2473 5.52333 38.2473 6.074C38.2473 6.67133 38.0933 7.194 37.7853 7.642C37.4773 8.08067 37.0713 8.42133 36.5673 8.664C36.0727 8.89733 35.5453 9.014 34.9853 9.014ZM34.8313 8.216C35.6993 8.216 36.3573 8.02 36.8053 7.628C37.2533 7.236 37.4773 6.662 37.4773 5.906C37.4773 5.39267 37.3 4.94933 36.9453 4.576C36.6 4.20267 36.1147 4.016 35.4893 4.016C35.0693 4.016 34.6447 4.09533 34.2153 4.254C33.786 4.41267 33.4313 4.65067 33.1513 4.968C32.8713 5.28533 32.7313 5.668 32.7313 6.116C32.7313 6.48933 32.8247 6.83933 33.0113 7.166C33.198 7.48333 33.45 7.74 33.7673 7.936C34.094 8.12267 34.4487 8.216 34.8313 8.216Z"
        fill="black" />
</svg>
